# xmcd
#
# Track frame offsets:
#	150
#	16286
#	29544
#	48548
#	66445
#	78767
#	102024
#	116328
#	127599
#	143363
#	152134
#	183759
#	192428
#	216379
#
# Disc length: 3073 seconds
#
# Revision: 1
# Processed by: cddbd v1.5.2PL0 Copyright (c) Steve Scherf et al.
# Submitted via: audiograbber 1.83.01
#
DISCID=b20bff0e
DTITLE=Música Nostra - +d26
DYEAR=2007
DGENRE=Folk
TTITLE0=Fandango (La Malaguenya)
TTITLE1=Jota Llevantina
TTITLE2=Bolero de les Nines
TTITLE3=Fandango per Regalar
TTITLE4=Bolero d'Ultramar
TTITLE5=Fandango el color de l'Alegria
TTITLE6=Jota de Veler
TTITLE7=Bolero per na Mar
TTITLE8=Fandango de L'illa
TTITLE9=Bolero de Castelló
TTITLE10=Jota Pastera and Cançó de Pandero
TTITLE11=Bolero Creuat
TTITLE12=Fandango del Jardí
TTITLE13=Les Currandes
EXTD=
EXTT0=
EXTT1=
EXTT2=
EXTT3=
EXTT4=
EXTT5=
EXTT6=
EXTT7=
EXTT8=
EXTT9=
EXTT10=
EXTT11=
EXTT12=
EXTT13=
PLAYORDER=
